<?xml version="1.0" encoding="utf-8"?>
<!-- Generator: Adobe Illustrator 25.4.1, SVG Export Plug-In . SVG Version: 6.00 Build 0)  -->
<svg version="1.1" id="Layer_1" xmlns="http://www.w3.org/2000/svg" xmlns:xlink="http://www.w3.org/1999/xlink" x="0px" y="0px"
	 viewBox="0 0 400 84" style="enable-background:new 0 0 400 84;" xml:space="preserve">
<style type="text/css">
	.st0{fill:#FCFCFC;}
</style>
<g>
	<path class="st0" d="M17.7,13.8l15.6,43.4c0.3,0.8,0.7,1.2,1.2,1.2c0.4,0,0.8-0.4,1.2-1.2l15.6-43.4h16L46.5,65
		c-1,2.4-2.4,4.4-4.2,5.8s-4.4,2.1-7.8,2.1c-5.9,0-10-2.6-12.1-7.8L1.7,13.8H17.7z"/>
	<path class="st0" d="M66.6,72.2V36.3c0-5.6,2.8-8.3,8.3-8.3h18c5.4,0,9.7,1.3,12.8,3.9c3.1,2.6,4.6,6.6,4.6,12v28.3h-13v-25
		c0-3.4-0.7-5.8-2.1-7.4c-1.4-1.5-3.8-2.3-7-2.3h-5.6c-1.1,0-1.8,0.2-2.2,0.7c-0.4,0.4-0.7,1.2-0.7,2.3v31.7H66.6z"/>
	<path class="st0" d="M130.3,23.4h-13v-9.6h13V23.4z M117.3,72.2V28h13v44.2H117.3z"/>
	<path class="st0" d="M183.6,42.6c3.6,0.5,6,1.9,7.5,4.1c1.4,2.2,2.1,5.3,2.1,9.3c0,5.4-1.1,9.4-3.2,12.1c-2.1,2.7-5.9,4-11.5,4
		h-31.3c-5.9,0-8.8-3-8.8-8.9V22.8c0-6,2.9-9,8.8-9h30.5c5,0,8.7,1.3,11,3.9s3.5,6.7,3.5,12.3c0,7.2-2.8,11.3-8.5,12.3v0.3H183.6z
		 M153.4,28.9v8.4h18c2.1,0,3.5-0.5,4.4-1.4s1.3-2.5,1.3-4.8c0-2.1-0.5-3.6-1.4-4.6c-0.9-0.9-2.4-1.4-4.5-1.4H157
		c-1.4,0-2.4,0.3-3,0.8C153.6,26.5,153.4,27.5,153.4,28.9z M153.4,48.2v8.5c0,1.7,0.3,2.8,0.8,3.3c0.6,0.6,1.7,0.8,3.3,0.8h13.9
		c2.3,0,3.9-0.5,4.9-1.5s1.5-2.6,1.5-4.9c0-2.3-0.5-3.9-1.5-4.9s-2.5-1.5-4.6-1.5h-18.3V48.2z"/>
	<path class="st0" d="M247.8,50.1c0,8.7-1.9,14.7-5.6,17.8c-3.7,3.2-10,4.8-18.9,4.8s-15.2-1.6-18.9-4.8c-3.7-3.2-5.6-9.1-5.6-17.8
		s1.9-14.6,5.6-17.8c3.7-3.2,10-4.8,18.9-4.8s15.2,1.6,18.9,4.8C245.9,35.5,247.8,41.4,247.8,50.1z M214.5,40.2
		c-1.6,2.1-2.4,5.4-2.4,9.9c0,4.6,0.8,7.9,2.4,9.9c1.6,2.1,4.5,3.1,8.8,3.1c4.2,0,7.1-1,8.8-3.1c1.6-2.1,2.4-5.4,2.4-9.9
		c0-4.6-0.8-7.9-2.4-9.9c-1.6-2.1-4.5-3.1-8.8-3.1C219.1,37.1,216.2,38.1,214.5,40.2z"/>
	<path class="st0" d="M301.3,50.1c0,8.7-1.9,14.7-5.6,17.8c-3.7,3.2-10,4.8-18.9,4.8s-15.2-1.6-18.9-4.8c-3.7-3.2-5.6-9.1-5.6-17.8
		s1.9-14.6,5.6-17.8c3.7-3.2,10-4.8,18.9-4.8s15.2,1.6,18.9,4.8C299.5,35.5,301.3,41.4,301.3,50.1z M268.1,40.2
		c-1.6,2.1-2.4,5.4-2.4,9.9c0,4.6,0.8,7.9,2.4,9.9c1.6,2.1,4.5,3.1,8.8,3.1c4.2,0,7.1-1,8.8-3.1c1.6-2.1,2.4-5.4,2.4-9.9
		c0-4.6-0.8-7.9-2.4-9.9c-1.6-2.1-4.5-3.1-8.8-3.1S269.7,38.1,268.1,40.2z"/>
	<path class="st0" d="M320.1,72.2h-13V13.8h13V72.2z M354.3,72.2H339l-13.4-15.8c-1.9-2.3-2.8-4.6-2.8-7c0-2.2,0.9-4.5,2.8-6.8
		L337.3,28h14.6l-15,17.8c-0.9,1.1-1.3,2.2-1.3,3.2c0,1.1,0.6,2.4,1.9,3.9L354.3,72.2z"/>
	<path class="st0" d="M355.5,72.2v-9.6H380c2,0,3-0.9,3-2.7c0-0.6-0.2-1.1-0.5-1.5s-0.8-0.8-1.5-1.1s-1.3-0.6-1.9-0.8
		s-1.3-0.4-2.1-0.6c-0.8-0.2-1.4-0.3-1.8-0.5l-9-2.8c-4.2-1.3-7.1-2.9-8.8-4.8c-1.7-1.9-2.5-4.6-2.5-8.3c0-4.1,1-7,3-8.9
		s5-2.8,9.2-2.8h27.5v9.6H371c-2.3,0-3.5,0.8-3.5,2.3c0,1.1,0.5,1.8,1.4,2.4c0.9,0.5,2.3,1.1,4,1.6l10.3,3.2c2.2,0.7,4,1.3,5.3,1.9
		c1.3,0.6,2.7,1.4,4,2.4s2.3,2.3,2.9,3.9c0.6,1.6,0.9,3.4,0.9,5.6c0,3.8-0.9,6.7-2.7,8.6c-1.8,1.9-4.7,2.8-8.5,2.8L355.5,72.2
		L355.5,72.2z"/>
</g>
</svg>
